<svg enable-background="new 0 0 32 32" viewBox="0 0 32 32" xmlns="http://www.w3.org/2000/svg"><path d="m16 31.36c-4.53 0-8.717-1.933-11.64-5.338v4.978h-.72v-6.36h6.36v.721h-5.257c2.792 3.364 6.855 5.279 11.257 5.279 8.072 0 14.64-6.567 14.64-14.64h.721c-.001 8.47-6.891 15.36-15.361 15.36zm-14.64-15.36h-.72c0-8.47 6.89-15.36 15.36-15.36 4.53 0 8.717 1.932 11.64 5.337v-4.977h.721v6.36h-6.361v-.72h5.257c-2.792-3.365-6.855-5.28-11.257-5.28-8.073 0-14.64 6.567-14.64 14.64z"/><path d="m0 0h32v32h-32z" fill="none"/></svg>